<?xml version="1.0" standalone="no"?>
<!DOCTYPE svg PUBLIC "-//W3C//DTD SVG 20010904//EN"
 "http://www.w3.org/TR/2001/REC-SVG-20010904/DTD/svg10.dtd">
<svg version="1.0" xmlns="http://www.w3.org/2000/svg"
 width="120.000000pt" height="120.000000pt" viewBox="0 0 120.000000 120.000000"
 preserveAspectRatio="xMidYMid meet">
<metadata>
Created by potrace 1.14, written by Peter Selinger 2001-2017
</metadata>
<g transform="translate(0.000000,120.000000) scale(0.100000,-0.100000)"
fill="#000000" stroke="none">
<path d="M572 1125 c-19 -23 -23 -40 -24 -85 -1 -3 2 -20 6 -38 3 -18 2 -31
-3 -28 -5 3 -11 -4 -14 -16 -6 -20 -8 -19 -42 15 -34 34 -71 54 -81 44 -3 -3
-6 -19 -6 -36 -1 -39 -14 -40 -23 -1 -7 31 -60 83 -79 77 -23 -7 -18 -63 8
-94 27 -32 73 -48 79 -29 2 6 6 -1 9 -16 4 -23 2 -27 -16 -25 -16 1 -21 -3
-20 -20 0 -12 -3 -20 -8 -17 -4 3 -8 15 -8 27 0 31 -48 83 -92 101 -35 14 -39
14 -48 -4 -18 -34 42 -130 82 -130 10 0 18 -5 18 -11 0 -5 -5 -7 -11 -3 -8 5
-8 1 0 -14 16 -29 15 -31 -19 -28 -32 2 -54 16 -27 16 9 0 17 3 17 6 0 14 -35
64 -49 70 -26 10 -81 13 -87 3 -13 -22 72 -100 90 -82 3 4 6 1 6 -5 0 -7 -7
-13 -15 -13 -8 -1 -21 -2 -27 -3 -14 -2 -12 -35 3 -50 18 -20 8 -26 -18 -12
-29 14 -71 14 -98 -1 -15 -9 -14 -12 2 -32 10 -12 30 -23 46 -25 15 -1 30 -5
33 -9 7 -6 45 12 56 28 4 5 4 14 1 20 -3 5 5 0 18 -12 22 -22 23 -23 4 -37
-18 -13 -62 -15 -82 -3 -15 9 -98 -36 -98 -53 0 -19 61 -50 98 -50 15 0 42 7
60 17 30 15 31 15 18 0 -11 -15 -10 -18 9 -25 22 -8 22 -8 -6 -27 -16 -10 -26
-14 -22 -10 15 16 -16 35 -57 35 -28 0 -51 -7 -69 -21 -25 -19 -26 -23 -13
-37 18 -18 74 -20 104 -4 31 17 39 15 21 -5 -33 -39 -30 -52 13 -59 48 -8 43
-16 -12 -23 -16 -2 -48 -40 -54 -64 -7 -25 -5 -26 27 -23 18 2 41 7 51 11 17
7 17 6 0 -26 -24 -46 -23 -71 4 -75 12 -2 25 1 28 6 3 5 12 7 20 3 8 -3 15 -1
15 5 0 5 7 13 16 16 13 5 14 4 6 -7 -7 -7 -14 -30 -17 -50 -5 -32 -4 -37 13
-37 32 0 71 38 78 76 7 40 11 40 18 1 6 -32 14 -47 26 -47 16 0 81 62 97 94
17 31 18 35 22 71 2 18 3 18 12 -3 7 -18 5 -29 -10 -48 -19 -24 -18 -69 2 -57
6 4 8 -2 4 -18 -4 -13 -7 -27 -7 -31 0 -18 -20 -6 -20 11 0 32 -27 33 -50 2
-22 -32 -27 -100 -8 -119 9 -9 17 -7 35 10 13 12 23 30 23 40 0 10 5 18 10 18
6 0 10 -6 8 -12 -4 -20 33 -89 46 -85 6 2 21 21 33 42 17 31 19 42 10 55 -11
13 -10 13 6 1 9 -7 17 -20 17 -28 0 -23 38 -59 51 -46 20 20 23 88 4 106 -15
16 -15 17 2 17 11 0 24 -5 31 -12 16 -16 28 -3 40 42 7 22 11 28 12 15 4 -54
15 -71 57 -93 31 -17 31 -17 34 32 2 24 1 42 -3 40 -3 -2 -16 8 -27 22 -11 14
-32 27 -46 28 -20 1 -33 17 -23 29 6 5 -49 84 -72 104 -23 19 -27 20 -53 6
-18 -9 -27 -20 -23 -28 3 -8 1 -17 -5 -20 -5 -4 -9 -3 -8 2 5 31 -2 40 -28 35
-16 -2 -34 -11 -40 -20 -12 -14 -13 -14 -13 2 0 10 -14 23 -37 33 -21 8 -48
27 -60 41 l-22 26 -26 -24 c-14 -13 -25 -28 -25 -34 0 -6 -12 -12 -26 -12
l-26 -2 23 17 c51 38 71 62 64 79 -4 9 -8 23 -8 30 0 6 -9 12 -19 12 -10 0
-18 5 -18 11 0 5 5 7 10 4 6 -3 10 -3 11 2 6 58 4 64 -20 70 -13 3 -32 1 -42
-5 -13 -9 -20 -8 -29 3 -11 13 -4 15 42 15 49 0 56 3 67 26 9 20 9 30 0 40 -9
12 -9 13 3 9 9 -4 28 6 46 24 17 17 38 31 46 31 9 0 25 9 36 20 18 18 20 18
29 2 7 -11 11 -12 11 -4 0 7 4 11 9 7 12 -7 67 -17 108 -19 21 -1 28 -4 22
-12 -5 -7 0 -19 16 -34 23 -22 26 -22 43 -7 10 10 22 17 26 17 5 0 -2 -8 -14
-18 -17 -14 -20 -23 -14 -46 3 -15 13 -30 21 -33 8 -3 10 -10 5 -17 -12 -16
-13 -59 0 -67 6 -4 3 -14 -11 -28 -28 -28 -27 -41 10 -79 18 -18 29 -35 25
-39 -3 -3 1 -17 10 -31 13 -20 14 -26 3 -33 -8 -4 -18 -1 -25 9 -9 12 -9 19
-1 24 7 4 7 11 -2 22 -8 9 -11 16 -7 16 4 0 -1 11 -10 25 -21 32 -34 31 -65
-1 l-24 -26 24 -19 c13 -10 30 -19 38 -19 10 0 14 -7 10 -20 -3 -11 -1 -20 4
-20 5 0 9 -5 9 -11 0 -6 7 -17 15 -25 9 -10 15 -11 15 -4 0 16 26 -11 34 -35
7 -25 60 -56 103 -62 32 -4 32 -4 23 28 -5 18 -8 34 -6 37 9 8 -40 55 -76 73
-37 19 -52 34 -23 23 10 -4 15 0 15 15 0 14 6 21 20 21 11 0 20 -5 20 -11 0
-5 -4 -8 -10 -4 -16 10 10 -52 29 -69 24 -22 75 -36 92 -26 30 19 -31 89 -80
93 -43 3 -16 21 29 19 3 0 10 6 17 13 19 21 -67 112 -115 122 -20 4 -43 6 -49
5 -7 -2 -13 3 -13 9 0 7 3 9 6 6 4 -3 16 -1 27 5 16 8 23 7 31 -4 16 -22 53
-28 67 -12 7 9 16 11 23 5 10 -8 73 -8 106 0 8 2 22 12 31 21 9 10 19 15 23
11 3 -3 6 -1 6 5 0 7 -7 12 -15 12 -8 0 -15 4 -15 9 0 10 -23 20 -60 28 -34 6
-38 13 -7 13 35 0 86 44 70 61 -21 21 -85 19 -120 -5 -33 -23 -32 -37 2 -50
17 -6 14 -10 -23 -26 -23 -11 -45 -26 -48 -35 -8 -21 -27 -19 -42 5 -7 11 -19
20 -27 20 -22 0 -18 17 5 23 15 4 20 0 20 -14 0 -25 31 -25 61 0 l24 20 -22 8
c-22 8 -22 8 6 27 29 20 66 85 50 87 -14 2 -29 6 -31 9 -7 7 -100 5 -104 -2
-8 -12 -24 -10 -24 4 0 6 3 8 7 5 9 -10 33 13 33 33 0 9 11 23 25 30 30 16 56
53 65 96 7 29 5 33 -16 37 -13 2 -24 1 -24 -2 0 -4 -14 -12 -31 -18 -27 -11
-30 -10 -24 5 4 9 8 30 9 47 2 42 -24 43 -63 3 -27 -28 -31 -38 -27 -68 3 -19
5 -37 6 -39 0 -2 11 4 25 13 33 22 38 20 20 -8 -22 -34 -36 -84 -24 -92 10 -6
3 -24 -9 -24 -4 0 -14 5 -22 10 -13 8 -13 11 1 22 19 15 31 56 19 63 -5 3 -11
1 -15 -5 -13 -21 -20 -8 -18 37 2 74 -20 101 -54 68 -22 -23 -25 -14 -10 31
14 44 12 77 -7 93 -20 16 -58 -30 -58 -71 -1 -58 2 -67 23 -70 20 -3 20 -3 -2
-27 l-22 -23 -13 32 c-9 20 -10 38 -5 48 5 10 6 26 4 37 -2 11 -5 25 -5 32 -1
6 -11 24 -23 39 l-21 27 -22 -28z m35 -207 c-2 -32 -32 -15 -33 18 0 18 2 20
17 11 10 -6 17 -19 16 -29z m-38 -42 c-5 -6 -9 -19 -9 -30 0 -30 -7 -15 -14
32 -6 41 -6 42 12 25 11 -10 15 -22 11 -27z m77 12 c-3 -13 -5 -27 -5 -32 -1
-6 -8 -1 -16 10 -12 17 -12 20 2 32 22 16 24 16 19 -10z m130 -63 c-3 -8 -12
-15 -21 -15 -14 0 -14 3 2 24 18 24 30 18 19 -9z m-336 -11 c0 -8 -6 -11 -15
-8 -8 4 -15 15 -15 26 0 17 3 18 15 8 8 -7 15 -19 15 -26z m-50 17 c0 -6 -4
-12 -9 -15 -13 -8 -42 4 -35 15 7 12 44 12 44 0z m260 -5 c0 -2 -7 -9 -15 -16
-13 -11 -14 -10 -9 4 5 14 24 23 24 12z m-186 -32 c3 -8 2 -12 -4 -9 -6 3 -10
10 -10 16 0 14 7 11 14 -7z m-86 -1 c-1 -5 4 -19 11 -33 l14 -25 -24 20 c-13
11 -26 21 -29 23 -2 2 2 7 10 12 18 12 21 12 18 3z m462 -12 c0 -5 -7 -12 -16
-15 -22 -9 -24 -8 -24 9 0 8 9 15 20 15 11 0 20 -4 20 -9z m-547 -181 c3 -10
-4 -15 -20 -16 -17 -1 -23 2 -19 11 3 8 0 16 -7 19 -7 2 0 4 15 3 15 -1 29 -8
31 -17z m57 -39 c0 -5 -8 -8 -17 -6 -10 1 -27 -2 -38 -8 -18 -9 -19 -9 -6 6
14 18 61 24 61 8z m98 -171 c-15 -19 -30 -28 -42 -25 -26 5 -48 -19 -38 -44 7
-19 10 -21 32 -21 20 0 -1 -25 -23 -26 -12 0 -31 -4 -42 -8 -11 -5 -15 -4 -10
1 16 13 31 56 29 83 -3 36 14 54 33 35 19 -19 33 -19 33 1 0 8 4 13 9 10 5 -3
14 1 21 9 23 28 22 15 -2 -15z m-136 8 c-17 -17 -15 -28 5 -28 18 0 12 -10 -9
-14 -7 -1 -23 -7 -35 -14 -19 -10 -20 -9 -16 8 3 11 10 23 15 26 5 4 5 11 -1
18 -7 9 -2 12 22 14 25 2 29 0 19 -10z m330 -55 c-10 -4 -10 -8 -1 -19 9 -11
8 -14 -4 -14 -21 0 -29 -27 -16 -52 7 -13 17 -18 31 -15 12 3 27 -2 39 -14 10
-10 15 -19 11 -19 -4 0 -13 5 -20 12 -9 9 -14 6 -21 -13 -5 -13 -6 -28 -3 -34
3 -5 -2 -4 -11 4 -10 8 -15 16 -13 19 10 9 -25 64 -38 59 -7 -3 -13 5 -14 19
-1 14 3 23 10 21 6 -1 18 10 25 26 8 15 19 27 26 26 8 0 8 -2 -1 -6z"/>
<path d="M473 1128 c-19 -26 -15 -92 7 -121 12 -15 25 -27 30 -27 9 0 27 49
24 68 -1 6 -2 19 -3 26 0 8 -12 26 -25 41 -18 19 -26 22 -33 13z"/>
<path d="M969 887 c-19 -15 -53 -66 -48 -71 5 -6 30 -9 55 -7 27 1 71 40 76
66 2 16 -3 20 -32 22 -19 2 -42 -3 -51 -10z"/>
<path d="M982 524 c-16 -13 -15 -15 8 -33 32 -25 80 -34 114 -22 31 12 27 30
-12 53 -33 20 -85 20 -110 2z"/>
</g>
</svg>
